<svg class="cart" xmlns="http://www.w3.org/2000/svg" width="24" height="24" fill="none" viewBox="0 0 24 24">
    <path fill="#161412" fill-rule="evenodd" d="M4.71 3.375H2v1.25h2.237l2.813 9.993.128.455h12.299l.135-.442 2.492-8.149.247-.808h-14.7v1.25h13.01l-2.109 6.9H8.125L5.312 3.83l-.128-.456H4.71Zm4.72 13.821a1.09 1.09 0 1 0 0 2.179 1.09 1.09 0 0 0 0-2.179Zm-2.34 1.09a2.34 2.34 0 1 1 4.679 0 2.34 2.34 0 0 1-4.679 0Zm10.34-1.09a1.09 1.09 0 1 0 0 2.179 1.09 1.09 0 0 0 0-2.179Zm-2.34 1.09a2.34 2.34 0 1 1 4.679 0 2.34 2.34 0 0 1-4.679 0Z" clip-rule="evenodd"/>
</svg>
